<svg id="eDZjFtz0mI91" xmlns="http://www.w3.org/2000/svg" xmlns:xlink="http://www.w3.org/1999/xlink" viewBox="0 0 1970 1360" shape-rendering="geometricPrecision" text-rendering="geometricPrecision"><path d="M418.134,768.304l76.896-.69c2.036-.019,4.048-.439,5.922-1.236c1.873-.796,3.572-1.954,4.998-3.407s2.552-3.173,3.313-5.061c.762-1.889,1.144-3.908,1.124-5.944l-.689-78.421c-.048-4.115-1.726-8.042-4.667-10.922-2.94-2.879-6.902-4.474-11.017-4.435l-66.549.581v11.981l.762,86.008c.18,2.867-.78,5.688-2.67,7.85s-4.558,3.491-7.423,3.696Z" fill="#005cfb" stroke="#5a96fc" stroke-miterlimit="10"/><path d="M428.409,756.758c.088,1.428-.106,2.86-.57,4.213-.465,1.353-1.192,2.601-2.139,3.673-.948,1.072-2.097,1.947-3.383,2.575s-2.682.996-4.11,1.084c0,0-10.892,1.271-10.892-11.363h13.76c2.435-.26,4.888-.321,7.334-.182Z" fill="#005cfb" stroke="#5a96fc" stroke-miterlimit="10"/><path d="M497.717,749.642l-54.169.508" fill="none" stroke="#5a96fc" stroke-linecap="round" stroke-linejoin="round"/><path d="M497.608,737.443l-54.168.508" fill="none" stroke="#5a96fc" stroke-linecap="round" stroke-linejoin="round"/><path d="M497.317,706.365l-54.168.508" fill="none" stroke="#5a96fc" stroke-linecap="round" stroke-linejoin="round"/><path d="M497.207,694.203l-54.168.472" fill="none" stroke="#5a96fc" stroke-linecap="round" stroke-linejoin="round"/><path d="M497.463,721.904l-54.168.508" fill="none" stroke="#5a96fc" stroke-linecap="round" stroke-linejoin="round"/><path d="M446.471,681.691l28.099-.255c2.727-.024,4.918-2.255,4.893-4.982v-.036c-.025-2.727-2.256-4.917-4.983-4.893l-28.099.255c-2.727.025-4.917,2.256-4.893,4.983l.001.036c.024,2.727,2.255,4.917,4.982,4.892Z" fill="#5a96fc"/><path d="M1408.45,897.516h-104.09c-7.64,0-13.83,6.193-13.83,13.832v87.026c0,7.636,6.19,13.836,13.83,13.836h104.09c7.64,0,13.83-6.2,13.83-13.836v-87.026c0-7.639-6.19-13.832-13.83-13.832Z" fill="#5a96fc"/><path d="M1319.46,955.604v38.92" fill="none" stroke="#005cfb" stroke-miterlimit="10"/><path d="M1333.95,955.604v38.92" fill="none" stroke="#005cfb" stroke-miterlimit="10"/><path d="M1346.91,962.467v32.058" fill="none" stroke="#005cfb" stroke-miterlimit="10"/><path d="M1359.11,986.9v7.625" fill="none" stroke="#005cfb" stroke-miterlimit="10"/><path d="M1373.63,965.517v29.008" fill="none" stroke="#005cfb" stroke-miterlimit="10"/><path d="M1385.83,920.533v73.991" fill="none" stroke="#005cfb" stroke-miterlimit="10"/><path d="M1398.79,920.533v73.991" fill="none" stroke="#005cfb" stroke-miterlimit="10"/><path d="M1310.17,966.425c7.26-14.341,15.61-20.513,22.25-17.681c16.02,6.862,21.35,34.345,30.5,33.583c19.75-1.67,3.85-61.72,36.63-64.843" fill="none" stroke="#fff" stroke-miterlimit="10"/><path d="M725.245,1109.8l.109-24.18" fill="none" stroke="#5a96fc" stroke-miterlimit="10"/><path d="M756.395,1109.94l.182-51.88" fill="none" stroke="#5a96fc" stroke-miterlimit="10"/><path d="M782.899,1110.05l.218-55.37" fill="none" stroke="#5a96fc" stroke-miterlimit="10"/><path d="M812.887,1110.16l.291-74.94" fill="none" stroke="#5a96fc" stroke-miterlimit="10"/><path d="M839.392,1110.27l.399-102.75" fill="none" stroke="#5a96fc" stroke-miterlimit="10"/><path d="M862.444,1110.34l.509-129.14" fill="none" stroke="#5a96fc" stroke-miterlimit="10"/><path d="M905.394,938.577h-227.782c-8.001,0-14.487,6.486-14.487,14.486v173.067c0,8,6.486,14.49,14.487,14.49h227.782c8.001,0,14.486-6.49,14.486-14.49v-173.067c0-8-6.485-14.486-14.486-14.486Z" fill="none" stroke="#5a96fc" stroke-miterlimit="10"/><path d="M704.333,1103.44l61.72-55.62c1.282-1.16,2.961-1.78,4.691-1.74c1.729.04,3.377.74,4.603,1.96l8.568,8.5c.648.64,1.419,1.15,2.268,1.48.849.34,1.757.5,2.67.48.913-.03,1.811-.23,2.641-.62.83-.38,1.575-.92,2.188-1.6l67.165-73.591" fill="none" stroke="#fff" stroke-miterlimit="10"/><path d="M689.81,962.068l-.58,145.442c-.01,3.31,1.295,6.5,3.63,8.85c2.334,2.36,5.507,3.69,8.822,3.71l177.463.69" fill="none" stroke="#fff" stroke-miterlimit="10"/><path d="M865.278,985.884l-9.585-7.443c-.198-.155-.354-.357-.452-.589-.099-.231-.137-.483-.112-.734.026-.25.114-.489.257-.696s.336-.374.561-.486l12.235-5.882c.25-.12.528-.168.803-.139s.537.135.756.304c.219.17.386.397.482.657.097.259.119.541.065.812l-2.614,13.324c-.05.252-.163.487-.33.682s-.381.343-.622.431c-.241.087-.501.111-.754.069s-.491-.149-.69-.31Z" fill="#fff"/><path d="M1663.9,437.302h-211.67l-32.89,25.415-2.03-25.415h-52.94c-3.85,0-7.54-1.53-10.27-4.253-2.72-2.723-4.25-6.417-4.25-10.269v-57.726c0-3.852,1.53-7.546,4.25-10.269c2.73-2.723,6.42-4.254,10.27-4.254h299.53c3.85,0,7.54,1.531,10.26,4.254c2.73,2.723,4.26,6.417,4.26,10.269v57.835c-.03,3.833-1.57,7.499-4.29,10.199s-6.4,4.215-10.23,4.214Z" fill="#5a96fc"/><path d="M1481.13,408.294h176.78" fill="none" stroke="#b3cefd" stroke-miterlimit="10"/><path d="M1481.13,391.848h176.78" fill="none" stroke="#b3cefd" stroke-miterlimit="10"/><path d="M1481.13,374.349h176.78" fill="none" stroke="#b3cefd" stroke-miterlimit="10"/><path d="M1454.85,363.129h-79.88c-3.56,0-6.46,2.894-6.46,6.463v48.722c0,3.569,2.9,6.463,6.46,6.463h79.88c3.57,0,6.46-2.894,6.46-6.463v-48.722c0-3.569-2.89-6.463-6.46-6.463Z" fill="#b3cefd"/><path d="M1003.78,818.768c0,0,94.87-34.89,157.03-37.068" fill="none" stroke="#fff" stroke-miterlimit="10"/><g id="eDZjFtz0mI935" transform="translate(792.888257 1093.860962)"><path d="M437.34,1007.38c-10.892,3.63-11.472,17.79-6.716,34.52c4.756,16.74,38.629,81.18,53.515,78.82c14.885-2.36-7.262-79.22-7.262-79.22l-39.537-34.12Z"/><path d="M668.935,927.105c-9.476,6.68-5.918,20.331,3.376,34.999c9.295,14.667,60.159,66.836,73.774,60.306c13.615-6.54-29.553-73.848-29.553-73.848l-47.597-21.457Z"/><path d="M617.781,795.46c0,0,75.117,16.011,80.454,47.488c4.465,26.321-30.425,83.285-30.425,83.285s59.905,49.884,64.552,49.521c6.39-3.63,26.249-24.179,42.006-53.587c16.519-30.933,28.536-71.631,15.72-112.73C759.519,711.738,660.113,703.57,660.113,703.57l-42.332,91.89Z" fill="#00a2ff"/><path d="M732.36,975.754c6.39-3.63,26.25-24.179,42.006-53.587c16.519-30.933,28.537-71.631,15.721-112.73-30.57-97.699-129.975-105.867-129.975-105.867" fill="none" stroke="#000" stroke-linecap="round" stroke-linejoin="round"/><path d="M617.781,795.46c0,0,75.117,16.011,80.454,47.488c4.465,26.322-30.425,83.286-30.425,83.286" fill="none" stroke="#000" stroke-linecap="round" stroke-linejoin="round"/><path d="M667.337,718.528c0,15.72-30.497,67.964-45.927,79.292c0,0,2.868,96.973-24.507,163.884-27.374,66.916-89.639,102.706-102.491,106.156c0,0-28.573-4.39-45.419-28.46-16.845-24.07-7.696-43.75-7.696-43.75s43.567-39.137,48.649-47.814C506.901,917.629,502,739.876,502,739.876s54.785,3.63,93.016-2.288c24.664-4.01,48.884-10.393,72.321-19.06Z" fill="#00a2ff"/><path d="M622.899,484.101c23.671-8.968,63.317-18.916,89.203-56.02c22.982-32.893,37.141-83.976,51.337-124.747c12.743-36.596,17.79-38.847,21.275-38.085c3.485.763,3.304,20.513.98,27.121c0,0,8.932-22.655,12.816-22.692c3.885-.036,4.865,15.321,1.198,27.557c0,0,9.621-18.662,15.031-17.899c3.267.472-1.852,22.655-1.852,22.655s10.565-19.932,13.397-12.998c2.142,5.301-6.027,36.088-6.027,36.088s-17.935,96.937-50.247,145.223c-24.724,36.96-53.115,59.978-99.587,74.79-2.105.618-47.524-60.993-47.524-60.993Z" fill="#fff" stroke="#000" stroke-linecap="round" stroke-linejoin="round"/><path d="M614.077,484.464c10.537-3.077,20.809-6.999,30.715-11.727c19.242-9.766,39.428-22.146,39.428-22.146s32.457,56.31,37.685,82.16c0,0-40.735,26.285-57.689,22.219l-50.139-70.506Z" fill="#00d3ee"/><path d="M609.72,485.699c8.641-4.357,13.179-1.598,13.179-1.598s40.481,43.349,54.168,73.302c13.688,29.952,36.96,107.864,37.069,144.57c0,0-89.204,51.336-212.353,38.956c0,0,1.452-219.941,18.153-230.942c6.861-4.429,89.784-24.288,89.784-24.288Z" fill="#00d3ee"/><path d="M511.076,632.918c-1.379,13.651,53.261,66.912,83.322,68.292c30.062,1.379,102.455-17.754,110.66-38.267c0,0-97.009,19.134-139.341-1.343-42.333-20.476-54.641-28.682-54.641-28.682Z"/><path d="M473.392,569.238c1.017,21.384,26.394,79.873,86.009,103.726c36.305,14.522,86.589,17.463,155.389-10.892c2.214-.908,27.882-9.803,34.635-19.387c6.753-9.585-16.41-1.271-13.614-2.578c4.53-1.917,8.932-4.125,13.179-6.608c5.446-3.63,11.109-10.057,5.3-11.981s-18.625,4.03-18.625,4.03s21.021-10.601,17.137-16.41c-3.885-5.809-25.233,3.376-25.233,3.376s24.47-12.779,16.991-17.281c-4.284-2.578-13.397,1.198-19.569,3.34-9.149,3.195-18.661,8.241-25.414,11.073c0,0,15.503-18.153,9.077-20.041s-28.246,19.86-32.675,23.962c-4.43,4.103-81.434,9.912-106.921-21.783s-26.068-41.607-35.398-46.218c-9.331-4.61-61.684-7.588-60.268,23.672Z" fill="#fff" stroke="#000" stroke-miterlimit="10"/><path d="M498.297,636.586c0,0,42.297-30.388,71.16-43.967c0,0-30.715-49.122-31.586-88.223c0,0-39.102,8.169-53.951,29.698-13.324,19.387-29.335,51.264,14.377,102.492Z" fill="#00d3ee"/><path d="M624.133,454.693c7.479-17.753-25.995-63.934-34.89-74.427-8.895-10.492-39.537-2.832-54.059,10.093-14.523,12.925-19.243,46.871-19.243,46.871l7.77,9.912c-1.487,1.96-2.163,4.417-1.888,6.861.545,5.809,10.529,14.777,20.259,16.556l9.911,12.671-.29,18.37c0,0,6.498,34.382,46.29,22.946c31.84-9.149,15.502-32.385,14.522-35.181l-1.416-20.15c5.519-3.641,10.008-8.643,13.034-14.522Z" fill="#fff" stroke="#000" stroke-miterlimit="10"/><path d="M534.821,445.689c0,0,7.951,8.06,12.163,6.717c1.839-.76,3.342-2.161,4.23-3.943.887-1.781,1.1-3.824.598-5.751-.871-6.971-19.423-26.757-19.423-26.757s.689-22.365,30.351-33.91c18.77-7.261,22.909-1.888,22.909-1.888s20.622-31.477,10.238-44.765c-10.383-13.288-30.024-11.582-48.032,5.337-14.087,13.252-30.207,31.877-29.299,47.851c0,0-18.48.763-21.529,15.103-3.05,14.341,11.291,18.916,11.291,18.916s-11.255-1.162-10.638,7.987s12.635,28.79,29.045,26.685l8.096-11.582Z"/><path d="M766.344,322.976c0,0,5.374-22.546,10.892-23.599s9.512,26.794,3.05,35.362" fill="none" stroke="#000" stroke-linecap="round" stroke-linejoin="round"/><path d="M684.22,450.591c0,0,35.217,62.119,37.686,82.16" fill="none" stroke="#000" stroke-linecap="round" stroke-linejoin="round"/><path d="M538.307,550.141c8.677,13.034,23.889,29.335,31.15,42.478l-71.159,43.966" fill="none" stroke="#000" stroke-linecap="round" stroke-linejoin="round"/><path d="M614.077,484.464c11.908,8.605,45.564,35.289,61.43,68.291" fill="none" stroke="#000" stroke-linecap="round" stroke-linejoin="round"/><path d="M501.783,740.928c0,0,102.019,17.863,212.353-38.956" fill="none" stroke="#000" stroke-linecap="round" stroke-linejoin="round"/><path d="M543.715,508.898c0,0,16.302,48.868,73.81,16.301" fill="none" stroke="#000" stroke-linecap="round" stroke-linejoin="round"/><path d="M621.411,797.82c-.545.326,15.103-22.22,15.103-22.22c7.3-5.662,13.06-13.068,16.752-21.536c3.692-8.469,5.198-17.73,4.378-26.932" fill="none" stroke="#000" stroke-linecap="round" stroke-linejoin="round"/><path d="M494.414,1067.86c0,0,79.872-32.67,102.491-106.155c13.765-44.494,22.294-90.44,25.414-136.91" fill="none" stroke="#000" stroke-linecap="round" stroke-linejoin="round"/></g><path d="M1106.13,1269.76c-49.05-31.55-2.87-102.17,47.38-68.62l-47.38,68.62Z" fill="#005cfb"/><path d="M1106.13,1269.76c-49.05-31.55-2.87-102.17,47.38-68.62" fill="none" stroke="#fff" stroke-miterlimit="10"/><g id="eDZjFtz0mI960" transform="matrix(0 0 0 0 1027.229695 638.352819)"><path d="M1040.53,833.326c0,0,87.46,308.924,90,360.594l-90-360.594Z" fill="#005cfb"/><path d="M1040.53,833.326c0,0,87.46,308.924,90,360.594" fill="none" stroke="#fff" stroke-miterlimit="10"/><path d="M1138.77,813.177c0,0,47.96,165.663,66.84,198.413l-66.84-198.413Z" fill="#005cfb"/><path d="M1138.77,813.177c0,0,47.96,165.663,66.84,198.413" fill="none" stroke="#fff" stroke-miterlimit="10"/><path d="M1118.22,894.974c0,0,80.82,271.386,120.17,331.216L1118.22,894.974Z" fill="#005cfb"/><path d="M1118.22,894.974c0,0,80.82,271.386,120.17,331.216" fill="none" stroke="#fff" stroke-miterlimit="10"/></g><g id="eDZjFtz0mI967" transform="translate(533.576387 977.16348)"><path d="M1592.88,804.173l49.09,69.489c10.43,15.048,24.21,27.47,40.26,36.29c16.04,8.819,33.91,13.796,52.21,14.538c7.87.579,15.77-.257,23.34-2.468c7.05-2.614,7.59,7.805,15.91,13.614c0,0,42.07,35.943,17.53,48.941-31.8,16.843-115.38,22.873-148.09,10.383-57.36-21.783-79.87-66.186-90.26-85.609-4.11-7.861-9.05-15.261-14.74-22.074l54.75-83.104Z"/><path d="M1405.76,863.134c0,0,63.79,142.686,112.22,180.036c41.54,32.06,112.37,45.13,140.15,38.23l-12.31-59.1l16.99-16.81c0,0-13.07-2.36-29.23-6.173-15.61-3.743-30.3-10.578-43.23-20.1-12.92-9.523-23.8-21.539-31.99-35.339L1540.2,913.49c0,0,80.86-55.911,49.67-113.31l-106.96,45.527-77.15,17.427Z"/><path d="M1537.81,522.73l-6.25-9.475c0,0-32.35-5.773-30.2-12.235c2.14-6.463,20.87-5.737,20.87-5.737s-18.15-24.47-18.15-33.111c0-8.64,15.1-2.868,18.73,2.869c0,0,24.04-12.744,39.76-4.466c13.65,7.261,29.55,41.86,29.55,41.86l-54.31,20.295Z" fill="#fff" stroke="#000" stroke-linecap="round" stroke-linejoin="round"/><path d="M1155.83,612.37c-10.09-16.556-18.4-42.115-13.36-54.459c5.05-12.344,40.74-26.794,40.74-26.794s-3.63-14.522,1.45-22.292c5.08-7.769,22.8,45.818,30.82,70.76l-59.65,32.785Z" fill="#fff" stroke="#000" stroke-linecap="round" stroke-linejoin="round"/><path d="M1430.78,597.556l1.45-24.288c0,0-21.79-23.744-39.94-26.032-18.15-2.287-46.03,8.278-47.2,21.203-1.16,12.925-.18,55.911,15.18,65.677c6.15,3.502,12.83,5.956,19.79,7.261c1.81,3.994,8.06,17.209,11.87,20.368c5.08,4.248,58.38-21.783,59.21-24.397.84-2.614-9.44-11.437-20.36-39.792Z" fill="#fff" stroke="#000" stroke-linecap="round" stroke-linejoin="round"/><path d="M1358.71,569.747c-9.15-3.195-36.96-7.552-32.68-17.899c4.29-10.347,13.65-33.111,40.3-27.121c26.65,5.991,64.7,17.572,64.3,33.874c0,0,2.4-7.261,9.55-.799c7.15,6.463,10.56,59.469,6.21,68.981-4.36,9.512-37.36,18.698-46.87,16.12-9.52-2.578-17.39-5.192-21.79-16.737l-3.16-26.249c0,0-9.94-.399-12.34-6.753-1.9-7.68-3.07-15.519-3.52-23.417Z"/><path d="M1535.19,687.195l-2.79-4.574c17.71-10.238,52.42-32.058,65.35-52.753c20.36-32.675.4-137.962-7.77-137.09-11.18,1.016-59.36,22.11-59.36,22.11c2.07,4.139,11.8,65.35,9.95,67.71-6.5,8.641-49.92,31.84-49.92,31.84s-86.27,39.683-117.45,50.139c-42.99,14.522-56.86,14.704-87.47-3.994-25.41-15.466-68.98-81.434-68.98-81.434-24.43,8.387-57.76,26.467-60.84,33.22c0,0,9.73,33.147,50.82,83.975c62.41,77.441,152.49,67.13,152.49,67.13c15.03,33.183,66.76,148.346,66.76,148.346c51.45,1.887,177.9-89.966,177.9-89.966l-68.69-134.659Z" fill="#00a2ff"/><path d="M1159.86,625.476c0,0,47.82,101.293,123.23,128.232c34.85,12.453,75.98,9.766,75.98,9.766" fill="none" stroke="#000" stroke-linecap="round" stroke-linejoin="round"/><path d="M1374.65,599.953c6.5-12.308,14.19-4.647,13.39,3.631-.79,8.277-5.37,24.579-11.5,21.529" fill="#fff"/><path d="M1374.65,599.953c6.5-12.308,14.19-4.647,13.39,3.631-.79,8.277-5.37,24.579-11.5,21.529" fill="none" stroke="#000" stroke-linecap="round" stroke-linejoin="round"/><path d="M1651.44,1004.69c-9.76,3.63-26.43,16.48-21.78,31.66c4.65,15.17,21.35,48.18,29.05,55.07c7.69,6.9,20.73,20.84,35.94,16.12s17.53-25.05,16.84-30.38c-2.68-20.92-23.67-55.91-37.21-68.11-9.84-9.04-17.32-6.36-22.84-4.36Z" fill="#00d3ee"/><path d="M1751.61,925.725c-12.56,6.789,55.88,98.825,74.57,82.775c25.24-21.781-10.6-70.867-30.67-94.393-1.52-1.916-3.4-3.506-5.55-4.675-2.14-1.17-4.5-1.895-6.93-2.132-2.43-.238-4.88.018-7.21.751s-4.49,1.928-6.35,3.514l-17.86,14.16Z" fill="#00d3ee"/><path d="M1155.83,612.369c0,0,38.52-31.005,74.25-37.685" fill="none" stroke="#000" stroke-linecap="round" stroke-linejoin="round"/><path d="M1527.02,518.845c20.35-10.137,41.37-18.847,62.92-26.067" fill="none" stroke="#000" stroke-linecap="round" stroke-linejoin="round"/><path d="M1526.81,590.949c0,0,30.35-18.516,44.87-8.459" fill="none" stroke="#000" stroke-linecap="round" stroke-linejoin="round"/><path d="M1511.41,642.757c2.22,3.377,92.36,179.097,92.36,179.097" fill="none" stroke="#000" stroke-linecap="round" stroke-linejoin="round"/><path d="M1217.81,706.401c0,0,12.27-6.716,30.13,2.215c26.03,13.034,18.99,35.725,18.99,35.725" fill="none" stroke="#000" stroke-linecap="round" stroke-linejoin="round"/><path d="M1587.33,639.417c0,0-16.78-36.85,17.82-43.567" fill="none" stroke="#000" stroke-linecap="round" stroke-linejoin="round"/><path d="M1674.5,1009.05c-12.38-2.36-33.62,16.62-26.9,29.04c6.71,12.42,27.55,66.66,47.19,69.6" fill="none" stroke="#000" stroke-linecap="round" stroke-linejoin="round"/><path d="M1663.21,1039.07L1690,1022.3" fill="none" stroke="#000" stroke-linecap="round" stroke-linejoin="round"/><path d="M1669.92,1051.34l26.8-16.73" fill="none" stroke="#000" stroke-linecap="round" stroke-linejoin="round"/><path d="M1678.85,1064.74l26.8-16.74" fill="none" stroke="#000" stroke-linecap="round" stroke-linejoin="round"/><path d="M1684.45,1079.23l26.75-16.74" fill="none" stroke="#000" stroke-linecap="round" stroke-linejoin="round"/><path d="M1650.93,1080.35c0,0-25.66,34.6-8.93,29.05c16.74-5.56,11.19-27.92,11.19-27.92" fill="none" stroke="#000" stroke-linecap="round" stroke-linejoin="round"/><path d="M1769.29,911.42c-4.5,2.614,45.38,95.59,56.71,97.08" fill="none" stroke="#000" stroke-linecap="round" stroke-linejoin="round"/><path d="M1788.24,924.091l12.27-10.057" fill="none" stroke="#000" stroke-linecap="round" stroke-linejoin="round"/><path d="M1796.05,937.489l12.31-10.057" fill="none" stroke="#000" stroke-linecap="round" stroke-linejoin="round"/><path d="M1802.77,950.885l12.27-10.056" fill="none" stroke="#000" stroke-linecap="round" stroke-linejoin="round"/><path d="M1809.45,964.282l12.27-10.057" fill="none" stroke="#000" stroke-linecap="round" stroke-linejoin="round"/><path d="M1817.25,977.642l12.31-10.02" fill="none" stroke="#000" stroke-linecap="round" stroke-linejoin="round"/><path d="M1783.78,989.95c0,23.42,4.46,26.79,8.93,23.42c4.47-3.38-1.13-21.205-1.13-21.205" fill="none" stroke="#000" stroke-linecap="round" stroke-linejoin="round"/><path d="M1371.49,654.194c0,0,4.1,8.205,34.89-.69s48.61-23.272,49.99-33.547" fill="none" stroke="#000" stroke-linecap="round" stroke-linejoin="round"/></g><path d="M1286.46,276.504v-79.655c0-4.772-3.87-8.641-8.64-8.641h-118.39c-4.78,0-8.64,3.869-8.64,8.641v79.655c0,4.772,3.86,8.641,8.64,8.641h118.39c4.77,0,8.64-3.869,8.64-8.641Z" fill="none" stroke="#5a96fc" stroke-miterlimit="10"/><path d="M1286.46,196.885c0-2.267-.89-4.443-2.48-6.059s-3.75-2.544-6.01-2.582h-118.36c-1.14-.014-2.28.199-3.34.627s-2.02,1.063-2.83,1.867c-.81.805-1.45,1.762-1.89,2.818-.44,1.055-.66,2.187-.65,3.329v6.317h135.38l.18-6.317Z" fill="#5a96fc"/><path d="M1210.11,213.949h-39.17c-2.91,0-5.27,2.357-5.27,5.265v32.966c0,2.907,2.36,5.264,5.27,5.264h39.17c2.91,0,5.26-2.357,5.26-5.264v-32.966c0-2.908-2.35-5.265-5.26-5.265Z" fill="#5a96fc"/><path d="M1224.63,217.071h48.76" fill="none" stroke="#5a96fc" stroke-linecap="round" stroke-linejoin="round"/><path d="M1224.63,229.742h48.76" fill="none" stroke="#5a96fc" stroke-linecap="round" stroke-linejoin="round"/><path d="M1224.63,243.757h48.76" fill="none" stroke="#5a96fc" stroke-linecap="round" stroke-linejoin="round"/><path d="M1224.63,256.427h48.76" fill="none" stroke="#5a96fc" stroke-linecap="round" stroke-linejoin="round"/><path d="M1167.96,269.098h105.43" fill="none" stroke="#5a96fc" stroke-linecap="round" stroke-linejoin="round"/><path d="M397.186,937.996v-50.937c0-3.048-2.471-5.518-5.519-5.518h-115.126c-3.048,0-5.518,2.47-5.518,5.518v50.937c0,3.048,2.47,5.519,5.518,5.519h115.126c3.048,0,5.519-2.471,5.519-5.519Z" fill="none" stroke="#5a96fc" stroke-miterlimit="10"/><path d="M397.185,887.096c-.009-1.471-.598-2.878-1.637-3.918-1.04-1.039-2.447-1.628-3.918-1.637h-115.089c-1.467.009-2.871.599-3.904,1.64-1.034,1.04-1.615,2.448-1.615,3.915v4.03h125.945l.218-4.03Z" fill="#5a96fc"/><path d="M308.963,897.988h-25.088c-1.844,0-3.34,1.495-3.34,3.34v21.13c0,1.844,1.496,3.34,3.34,3.34h25.088c1.844,0,3.34-1.496,3.34-3.34v-21.13c0-1.845-1.496-3.34-3.34-3.34Z" fill="#5a96fc"/><path d="M318.22,899.984h70.615" fill="none" stroke="#5a96fc" stroke-linecap="round" stroke-linejoin="round"/><path d="M318.22,908.081h70.615" fill="none" stroke="#5a96fc" stroke-linecap="round" stroke-linejoin="round"/><path d="M318.22,917.048h70.615" fill="none" stroke="#5a96fc" stroke-linecap="round" stroke-linejoin="round"/><path d="M318.22,925.144h70.615" fill="none" stroke="#5a96fc" stroke-linecap="round" stroke-linejoin="round"/><path d="M281.987,933.24h106.848" fill="none" stroke="#5a96fc" stroke-linecap="round" stroke-linejoin="round"/><path d="M341.747,201.859v-53.333c0-3.208-2.601-5.809-5.809-5.809h-79.292c-3.208,0-5.809,2.601-5.809,5.809v53.333c0,3.208,2.601,5.809,5.809,5.809h79.292c3.208,0,5.809-2.601,5.809-5.809Z" fill="none" stroke="#5a96fc" stroke-miterlimit="10"/><path d="M341.746,148.526c0-1.541-.612-3.018-1.701-4.108-1.089-1.089-2.567-1.701-4.108-1.701h-79.328c-.761,0-1.515.151-2.217.443-.703.292-1.341.721-1.878,1.261-.536.54-.961,1.18-1.248,1.885-.288.704-.434,1.459-.429,2.22v4.211h90.764l.145-4.211Z" fill="#5a96fc"/><path d="M290.555,159.962h-26.249c-1.945,0-3.521,1.577-3.521,3.522v22.074c0,1.945,1.576,3.521,3.521,3.521h26.249c1.945,0,3.522-1.576,3.522-3.521v-22.074c0-1.945-1.577-3.522-3.522-3.522Z" fill="#5a96fc"/><path d="M300.322,162.032h32.676" fill="none" stroke="#5a96fc" stroke-linecap="round" stroke-linejoin="round"/><path d="M300.322,170.528h32.676" fill="none" stroke="#5a96fc" stroke-linecap="round" stroke-linejoin="round"/><path d="M300.322,179.931h32.676" fill="none" stroke="#5a96fc" stroke-linecap="round" stroke-linejoin="round"/><path d="M300.322,188.426h32.676" fill="none" stroke="#5a96fc" stroke-linecap="round" stroke-linejoin="round"/><path d="M262.31,196.885h70.687" fill="none" stroke="#5a96fc" stroke-linecap="round" stroke-linejoin="round"/><path d="M1088.99,142.245c2.61,0,4.72-2.113,4.72-4.72c0-2.606-2.11-4.719-4.72-4.719-2.6,0-4.72,2.113-4.72,4.719c0,2.607,2.12,4.72,4.72,4.72Z" fill="#fff"/><path d="M160.108,727.459c2.607,0,4.72-2.113,4.72-4.72s-2.113-4.72-4.72-4.72-4.72,2.113-4.72,4.72s2.113,4.72,4.72,4.72Z" fill="#fff"/><path d="M1674.53,1285.55c2.61,0,4.72-2.11,4.72-4.72c0-2.6-2.11-4.72-4.72-4.72-2.6,0-4.72,2.12-4.72,4.72c0,2.61,2.12,4.72,4.72,4.72Z" fill="#fff"/><path d="M1023.13,1072c2.61,0,4.72-2.11,4.72-4.72c0-2.6-2.11-4.72-4.72-4.72-2.6,0-4.72,2.12-4.72,4.72c0,2.61,2.12,4.72,4.72,4.72Z" fill="#fff"/><path d="M1325.02,38.4097c2.61,0,4.72-2.1131,4.72-4.7197s-2.11-4.7198-4.72-4.7198-4.72,2.1131-4.72,4.7198s2.11,4.7197,4.72,4.7197Z" fill="#fff"/><path d="M4.71976,1003.78c2.60665,0,4.71976-2.11,4.71976-4.717c0-2.606-2.11311-4.719-4.71976-4.719s-4.71976,2.113-4.71976,4.719c0,2.607,2.11311,4.717,4.71976,4.717Z" fill="#fff"/><path d="M667.301,306.965c2.607,0,4.72-2.113,4.72-4.72c0-2.606-2.113-4.719-4.72-4.719-2.606,0-4.719,2.113-4.719,4.719c0,2.607,2.113,4.72,4.719,4.72Z" fill="#fff"/><path d="M1858.68,350.822c2.6,0,4.72-2.113,4.72-4.72s-2.12-4.72-4.72-4.72c-2.61,0-4.72,2.113-4.72,4.72s2.11,4.72,4.72,4.72Z" fill="#fff"/><path d="M1892.73,770.953c2.61,0,4.72-2.113,4.72-4.72c0-2.606-2.11-4.719-4.72-4.719-2.6,0-4.72,2.113-4.72,4.719c0,2.607,2.12,4.72,4.72,4.72Z" fill="#fff"/><path d="M1865.21,23.3072v-22.03767" fill="none" stroke="#fff" stroke-linecap="round" stroke-linejoin="round"/><path d="M1854.21,12.2705h22" fill="none" stroke="#fff" stroke-linecap="round" stroke-linejoin="round"/><path d="M336.664,496.844v-22.038" fill="none" stroke="#fff" stroke-linecap="round" stroke-linejoin="round"/><path d="M325.626,485.844h22.038" fill="none" stroke="#fff" stroke-linecap="round" stroke-linejoin="round"/><path d="M131.935,146.347v-22.037" fill="none" stroke="#fff" stroke-linecap="round" stroke-linejoin="round"/><path d="M120.936,135.347h22.037" fill="none" stroke="#fff" stroke-linecap="round" stroke-linejoin="round"/><path d="M544.297,1221.44c11.329,0,20.513-9.19,20.513-20.52s-9.184-20.51-20.513-20.51-20.513,9.18-20.513,20.51s9.184,20.52,20.513,20.52Z" fill="none" stroke="#5a96fc" stroke-width="2" stroke-linecap="round" stroke-linejoin="round"/><path d="M557.911,1219.26l17.645,22.58" fill="none" stroke="#5a96fc" stroke-width="2" stroke-linecap="round" stroke-linejoin="round"/><path d="M1089.17,1252.55c-12.16-12.2-45.27-1.74-43.56,20.88l43.56-20.88Z" fill="#005cfb"/><path d="M1089.17,1252.55c-12.16-12.2-45.27-1.74-43.56,20.88" fill="none" stroke="#fff" stroke-miterlimit="10"/><path d="M1949.3,906.083h20.4" fill="none" stroke="#fff" stroke-miterlimit="10"/><path d="M1410.88,1093.13h20.37" fill="none" stroke="#fff" stroke-miterlimit="10"/><path d="M409.639,301.41h20.367" fill="none" stroke="#fff" stroke-miterlimit="10"/><path d="M1842.92,527.522h20.37" fill="none" stroke="#fff" stroke-miterlimit="10"/><path d="M1732.77,161.197h33.62" fill="none" stroke="#5a96fc" stroke-linecap="round" stroke-linejoin="round"/><path d="M238.42,345.957v18.879" fill="none" stroke="#5a96fc" stroke-linecap="round" stroke-linejoin="round"/><path d="M156.406,1123.92v18.88" fill="none" stroke="#5a96fc" stroke-linecap="round" stroke-linejoin="round"/><path d="M1480.66,1186.4h33.62" fill="none" stroke="#5a96fc" stroke-linecap="round" stroke-linejoin="round"/><path d="M1661.97,329.728v-13.505" fill="none" stroke="#fff" stroke-linecap="round" stroke-linejoin="round"/><path d="M1690.69,353.364h15.18" fill="none" stroke="#fff" stroke-linecap="round" stroke-linejoin="round"/><path d="M1680.56,338.188l13.51-13.506" fill="none" stroke="#fff" stroke-linecap="round" stroke-linejoin="round"/><path d="M1654.97,110.151c0,8.554-2.54,16.915-7.29,24.027-4.76,7.111-11.51,12.653-19.42,15.925-7.9,3.272-16.59,4.126-24.98,2.455-8.39-1.672-16.1-5.794-22.14-11.844-6.05-6.051-10.16-13.759-11.83-22.15-1.66-8.39-.8-17.085,2.48-24.9856s8.82-14.6512,15.94-19.3981c7.11-4.7469,15.48-7.2768,24.03-7.2696v43.2403h43.21Z" fill="#005cfb" stroke="#fff" stroke-linecap="round" stroke-linejoin="round"/><path d="M1669.81,95.846c0-5.6845-1.12-11.3132-3.29-16.5641-2.18-5.2509-5.37-10.0209-9.4-14.0371-4.02-4.0161-8.79-7.1997-14.05-9.3684-5.25-2.1688-10.88-3.2802-16.57-3.2706v43.2402c0,0,43.31,1.1255,43.31,0Z" fill="#5a96fc"/><path d="M1597.02,129.066l-30.93,30.969h-58.24" fill="none" stroke="#5a96fc" stroke-linecap="round" stroke-linejoin="round"/><path d="M1739.19,27.2642h-20.91c-1.8,0-3.27,1.4629-3.27,3.2675v16.4828c0,1.8046,1.47,3.2676,3.27,3.2676h20.91c1.81,0,3.27-1.463,3.27-3.2676v-16.4828c0-1.8046-1.46-3.2675-3.27-3.2675Z" fill="#5a96fc"/><path d="M1493.95,148.272h-20.91c-1.81,0-3.27,1.463-3.27,3.267v16.483c0,1.805,1.46,3.268,3.27,3.268h20.91c1.8,0,3.27-1.463,3.27-3.268v-16.483c0-1.804-1.47-3.267-3.27-3.267Z" fill="#5a96fc"/><path d="M1669.92,57.0714l16.89-16.9186h16.91" fill="none" stroke="#5a96fc" stroke-linecap="round" stroke-linejoin="round"/><path d="M1732.37,785.439h-73.88c-3.96,0-7.75-1.572-10.55-4.37s-4.37-6.594-4.37-10.551v-75.335c0-3.957,1.57-7.753,4.37-10.551s6.59-4.371,10.55-4.371h63.97v94.141c-.05,2.752.95,5.42,2.79,7.467c1.83,2.048,4.38,3.323,7.12,3.57v0Z" fill="none" stroke="#5a96fc" stroke-miterlimit="10"/><path d="M1722.46,774.403c-.01,2.727,1,5.358,2.84,7.375c1.83,2.016,4.36,3.271,7.07,3.517c0,0,10.38,1.089,10.38-10.892h-13.21c-2.36-.182-4.72-.182-7.08,0v0Z" fill="none" stroke="#5a96fc" stroke-miterlimit="10"/><path d="M1655.73,768.194h52.06" fill="none" stroke="#5a96fc" stroke-linecap="round" stroke-linejoin="round"/><path d="M1655.73,756.467h52.06" fill="none" stroke="#5a96fc" stroke-linecap="round" stroke-linejoin="round"/><path d="M1655.73,726.588h52.06" fill="none" stroke="#5a96fc" stroke-linecap="round" stroke-linejoin="round"/><path d="M1655.73,714.897h52.06" fill="none" stroke="#5a96fc" stroke-linecap="round" stroke-linejoin="round"/><path d="M1655.73,741.545h52.06" fill="none" stroke="#5a96fc" stroke-linecap="round" stroke-linejoin="round"/><path d="M1704.41,692.932h-27.01c-2.62,0-4.75,2.13-4.75,4.756c0,2.627,2.13,4.756,4.75,4.756h27.01c2.63,0,4.76-2.129,4.76-4.756c0-2.626-2.13-4.756-4.76-4.756Z" fill="#5a96fc"/><path d="M1721.08,745.322c6.15,0,11.14-4.991,11.14-11.146c0-6.156-4.99-11.146-11.14-11.146-6.16,0-11.15,4.99-11.15,11.146c0,6.155,4.99,11.146,11.15,11.146Z" fill="#005cfb" stroke="#fff" stroke-linecap="round" stroke-linejoin="round"/><path d="M1728.48,744.124l9.59,12.271" fill="none" stroke="#fff" stroke-linecap="round" stroke-linejoin="round"/><path d="M1345.97,1280.07c3.88-19.28,30.93-46.54,63.57-36.6c44.33,13.47,30.82,59.73,30.82,59.73" fill="#005cfb"/><path d="M1345.97,1280.07c3.88-19.28,30.93-46.54,63.57-36.6c44.33,13.47,30.82,59.73,30.82,59.73" fill="none" stroke="#fff" stroke-miterlimit="10"/><path d="M1415.31,1318.59c0,0,21.2-26.98,48.18-21.2l-48.18,21.2Z" fill="#005cfb"/><path d="M1415.31,1318.59c0,0,21.2-26.98,48.18-21.2" fill="none" stroke="#fff" stroke-miterlimit="10"/><path d="M1307.48,1173.22v-22" fill="none" stroke="#fff" stroke-linecap="round" stroke-linejoin="round"/><path d="M1296.48,1162.22h22.04" fill="none" stroke="#fff" stroke-linecap="round" stroke-linejoin="round"/><g id="eDZjFtz0mI9176" transform="translate(842.467852 1313.792347)"><path d="M953.028,667.953c-33.22,10.892-109.68,68.401-50.647,233.883.485,1.35,1.316,2.549,2.409,3.478s2.411,1.555,3.822,1.816c1.41.261,2.865.147,4.218-.33c1.353-.476,2.557-1.299,3.493-2.387c14.522-17.209,36.633-65.786,98.357-90.002L953.028,667.953Z" fill="#5a96fc"/><path d="M1136,609.439c34.71-3.63,141.88,11.582,155.39,186.758.11,1.429-.15,2.863-.77,4.158-.61,1.295-1.56,2.405-2.74,3.218s-2.56,1.301-3.99,1.415c-1.43.113-2.86-.151-4.16-.768-20.33-9.766-64.87-26.104-131.1-23.09L1136,609.439Z" fill="#5a96fc"/><path d="M1019.09,840.288c-56.301-81.486-101.853-169.894-135.532-263.035-37.722-106.268-52.135-203.821-42.805-289.975c18.153-167.007,61.72-223.8257,72.83-225.0964.449-.1234.913-.1845,1.379-.1815c8.859,0,72.322,29.0447,159.748,166.5349c91.89,144.461,100.09,289.176,84.26,579.586v1.38l-139.16,31.913-.72-1.126Z" fill="#005cfb"/><path d="M914.907,63.6428c10.202,0,74.028,33.1835,158.293,165.7002c93.05,146.312,99.48,294.077,83.98,578.497l-136.62,31.332C916.904,689.265,822.291,472.81,842.296,287.432c18.77-173.723,64.733-223.6077,71.413-223.6077.323-.1294.669-.1912,1.017-.1815h.181Zm-.181-3.6306c-.627-.0151-1.252.0707-1.852.2541-7.007,1.2707-20.476,17.9714-33.692,48.7587-13.215,30.787-30.533,85.646-40.481,177.899-9.33,86.444,5.119,184.252,42.914,290.737c33.736,93.294,79.361,181.848,135.745,263.471l1.42,2.033l2.39-.544l136.62-31.332l2.65-.617.19-2.723c15.82-290.81,7.62-435.67-84.56-580.676C994.78,99.6945,929.43,60.0122,914.907,60.0122h-.181Z" fill="#fff"/><path d="M1072.72,227.675C985.408,89.4227,919.44,59.5067,913.414,62.157c-5.809,0-44.039,37.5039-63.899,161.924-2.977,18.552-5.518,39.065-7.515,61.72c17.165.985,34.381.584,51.482-1.198c22.441-2.045,44.683-5.881,66.512-11.473c78.966-20.222,112.726-45.455,112.726-45.455Z" fill="#5a96fc"/><path d="M1049.75,605.762c-12.13-15.721,5.33,123.621,23.38,202.042c8.78,37.576,26.94,59.36,30.06,59.723s7.77-24.906,1.45-64.116c-7.26-45.165-31.58-167.443-54.89-197.649Z" fill="#5a96fc"/><path d="M989.989,490.164c43.991,0,79.651-35.662,79.651-79.655c0-43.992-35.66-79.655-79.651-79.655-43.992,0-79.655,35.663-79.655,79.655c0,43.993,35.663,79.655,79.655,79.655Z" fill="#5a96fc"/><path d="M966.244,355.978c0,0,56.676-16.374,80.596,26.431" fill="none" stroke="#fff" stroke-linecap="round" stroke-linejoin="round"/><path d="M923.184,78.5649c24.545,18.0673,47.119,38.6691,67.347,61.4661" fill="none" stroke="#fff" stroke-linecap="round" stroke-linejoin="round"/><path d="M1003.17,156.877c0,0,18.51,21.057,27.77,32.675" fill="none" stroke="#fff" stroke-linecap="round" stroke-linejoin="round"/></g><path d="M770.157,264.523c28.893,0,52.316-23.423,52.316-52.317c0-28.893-23.423-52.316-52.316-52.316-28.894,0-52.317,23.423-52.317,52.316c0,28.894,23.423,52.317,52.317,52.317Z" fill="#00a2ff"/><path d="M767.506,235.806l17.027-6.027c.589-.192,1.08-.608,1.365-1.158s.343-1.191.16-1.783c-.982-3.86-.754-7.928.653-11.654c3.631-10.529,3.885-23.417-4.974-30.315-3.583-2.667-7.86-4.245-12.317-4.543-4.457-.299-8.906.693-12.813,2.857-3.908,2.165-7.109,5.41-9.22,9.347-2.11,3.937-3.041,8.399-2.682,12.851c1.053,13.615,12.925,18.407,14.85,19.533c3.564,2.865,6.307,6.623,7.951,10.892v0Z" fill="none" stroke="#fff" stroke-miterlimit="10"/><path d="M771.571,233.082l-7.696-21.384l1.779.472c1.3.333,2.666.298,3.948-.099c1.282-.398,2.429-1.142,3.313-2.152l1.416-1.634l7.66,21.239" fill="none" stroke="#fff" stroke-miterlimit="10"/><path d="M767.505,235.805l2.251,6.571c.835,2.433,4.429,3.341,8.06,2.034l6.499-2.324c3.63-1.307,5.772-4.284,4.901-6.68l-2.324-6.499-19.387,6.898Z" fill="none" stroke="#fff" stroke-miterlimit="10"/><path d="M1228.88,510.895c28.89,0,52.32-23.423,52.32-52.317s-23.43-52.317-52.32-52.317-52.32,23.423-52.32,52.317s23.43,52.317,52.32,52.317Z" fill="#00d3ee"/><path d="M1228.7,484.137l17.03-6.027c.58-.199,1.06-.616,1.35-1.164.28-.548.34-1.184.17-1.776-.98-3.86-.75-7.929.65-11.654c3.63-10.529,3.89-23.454-4.97-30.352-3.59-2.653-7.87-4.218-12.32-4.508-4.46-.29-8.9.708-12.8,2.874-3.91,2.166-7.11,5.409-9.22,9.342s-3.04,8.391-2.69,12.841c1.09,13.615,12.92,18.407,14.85,19.533c3.56,2.865,6.31,6.623,7.95,10.891v0Z" fill="none" stroke="#000" stroke-miterlimit="10"/><path d="M1232.77,481.378l-7.7-21.348l1.78.472c1.3.332,2.66.298,3.95-.1c1.28-.397,2.42-1.142,3.31-2.151l1.41-1.634l7.67,21.239" fill="none" stroke="#000" stroke-miterlimit="10"/><path d="M1228.7,484.137l2.25,6.572c.84,2.432,4.43,3.34,8.06,2.033l6.5-2.324c3.63-1.307,5.77-4.284,4.9-6.68l-2.32-6.499-19.39,6.898Z" fill="none" stroke="#000" stroke-miterlimit="10"/><path d="M1150.46,1358.75c2.19-9.4,6.97-18,13.79-24.82c6.82-6.83,15.41-11.61,24.8-13.81c32.68-7.74,59.87,38.63,59.87,38.63" fill="#005cfb"/><path d="M1150.46,1358.75c2.19-9.4,6.97-18,13.79-24.82c6.82-6.83,15.41-11.61,24.8-13.81c32.68-7.74,59.87,38.63,59.87,38.63" fill="none" stroke="#fff" stroke-miterlimit="10"/><path d="M567.097,221.864h-41.025c-1.473,0-2.886-.586-3.928-1.627-1.042-1.042-1.627-2.455-1.627-3.928v-41.062c0-1.473.585-2.886,1.627-3.928s2.455-1.627,3.928-1.627h8.314c0,0-2.868,17.754,11.908,17.754c12.417,0,10.021-17.754,10.021-17.754h10.891c1.474,0,2.887.585,3.928,1.627c1.042,1.042,1.627,2.455,1.627,3.928v11.218c0,0,16.628-2.868,16.628,10.892c0,12.417-16.628,11.437-16.628,11.437v7.261c.035.76-.086,1.518-.357,2.229-.27.711-.683,1.359-1.214,1.904-.531.544-1.169.974-1.873,1.262-.703.289-1.459.429-2.22.414v0Z" fill="none" stroke="#5a96fc" stroke-miterlimit="10"/><path d="M852.606,1359h-41.061c-1.474,0-2.887-.59-3.928-1.63-1.042-1.04-1.627-2.45-1.627-3.93v-41.02c0-1.48.585-2.89,1.627-3.93c1.041-1.04,2.454-1.63,3.928-1.63h8.314c0,0-2.978,17.76,11.944,17.76c12.417,0,10.021-17.72,10.021-17.72h10.891c1.474,0,2.886.58,3.928,1.63c1.042,1.04,1.627,2.45,1.627,3.92v11.22c0,0,16.592-2.87,16.592,10.89c0,12.42-16.592,11.48-16.592,11.48v7.26c.02.75-.113,1.5-.39,2.19-.277.7-.693,1.34-1.222,1.87-.53.53-1.162.95-1.858,1.23-.696.29-1.443.42-2.194.41v0Z" fill="none" stroke="#5a96fc" stroke-miterlimit="10"/><path d="M1858.21,1065.72h41.06c1.47.01,2.88.6,3.91,1.64c1.04,1.04,1.63,2.45,1.64,3.92v41.06c-.01,1.47-.6,2.88-1.64,3.91-1.03,1.04-2.44,1.63-3.91,1.64h-8.32c0,0,2.87-17.75-11.94-17.75-12.38,0-10.02,17.75-10.02,17.75h-10.89c-1.47-.01-2.88-.6-3.92-1.64-1.04-1.03-1.63-2.44-1.64-3.91v-11.22c0,0-16.59,2.87-16.59-10.89c0-12.42,16.59-11.44,16.59-11.44v-7.26c-.03-.76.1-1.52.37-2.22.27-.71.69-1.36,1.22-1.9.53-.55,1.16-.98,1.86-1.27s1.46-.43,2.22-.42v0Z" fill="none" stroke="#5a96fc" stroke-miterlimit="10"/><path d="M1417.49,252.397h6.28c.35-.009.68-.155.93-.406.24-.251.38-.587.38-.937v-9.113c0-.173-.04-.344-.11-.503-.06-.16-.16-.303-.29-.422s-.27-.211-.44-.27c-.16-.06-.33-.085-.51-.075h-6.46c-.8-2.92-2.09-5.682-3.81-8.169l4.65-4.865c.12-.122.21-.266.28-.425s.1-.329.1-.501-.03-.342-.1-.501-.16-.303-.28-.425l-6.61-6.281c-.25-.248-.59-.387-.95-.387-.35,0-.69.139-.94.387l-4.97,5.047c-2.27-1.285-4.72-2.227-7.26-2.796v-7.261c0-.347-.14-.679-.39-.924-.24-.245-.57-.383-.92-.383h-9.19c-.34,0-.68.138-.92.383-.25.245-.38.577-.38.924v7.261c-2.89.74-5.63,1.968-8.1,3.631l-5.41-5.156c-.12-.126-.26-.227-.42-.296-.16-.068-.33-.104-.51-.104-.17,0-.34.036-.5.104-.16.069-.3.17-.42.296l-6.32,6.572c-.12.121-.22.265-.28.424-.07.159-.1.329-.1.502c0,.172.03.342.1.501.06.159.16.303.28.424l5.41,5.192c-1.39,2.323-2.42,4.845-3.05,7.479h-7.26c-.35.01-.68.155-.93.406-.24.251-.38.587-.38.937v9.113c.01.35.16.682.41.927.25.244.59.38.94.38h7.26c.64,2.914,1.8,5.692,3.41,8.205l-4.79,5.047c-.13.119-.23.262-.3.421s-.1.331-.1.505c0,.173.03.345.1.504s.17.303.3.421l6.61,6.281c.12.122.26.219.42.285s.33.1.5.1.34-.034.5-.1.31-.163.43-.285l4.61-4.865c2.34,1.436,4.89,2.501,7.55,3.159v6.608c0,.171.03.341.1.5.07.158.16.302.28.424.12.121.27.217.43.283s.33.1.5.1h9.11c.35,0,.68-.138.92-.383.25-.245.39-.578.39-.924v-6.39c3.16-.65,6.18-1.881,8.89-3.631l4.47,4.284c.12.122.26.219.42.285s.33.1.5.1c.18,0,.35-.034.5-.1.16-.066.31-.163.43-.285l6.32-6.607c.12-.122.21-.266.28-.425s.1-.329.1-.501-.03-.343-.1-.501c-.07-.159-.16-.304-.28-.425l-4.51-4.32c1.56-2.61,2.64-5.474,3.2-8.46Zm-10.53,1.38c-1.57,3.727-4.45,6.75-8.1,8.496-.51.255-1.05.473-1.59.653-3.81,1.351-7.99,1.248-11.73-.29l-.62-.291c-3.68-1.678-6.61-4.65-8.24-8.35c0-.327-.25-.654-.36-.98-.67-1.801-1.02-3.706-1.02-5.628.01-2.087.4-4.155,1.16-6.099.02-.109.02-.219,0-.327c1.59-3.724,4.48-6.743,8.14-8.496l.79-.326c3.74-1.539,7.92-1.642,11.73-.291h.36c3.78,1.46,6.9,4.232,8.79,7.806.18.327.33.69.51,1.053c1.59,3.715,1.78,7.887.51,11.727-.09.453-.2.902-.33,1.343Z" fill="#fff"/><path d="M340.439,1063.22h6.281c.344-.02.667-.17.903-.42.237-.25.368-.58.368-.93v-9.11c0-.17-.035-.35-.103-.5-.069-.16-.169-.31-.295-.43-.125-.12-.274-.21-.437-.27-.162-.06-.336-.08-.508-.07h-6.463c-.756-2.9-1.983-5.66-3.63-8.17l4.61-4.87c.122-.12.219-.26.285-.42s.1-.33.1-.5-.034-.34-.1-.5-.163-.31-.285-.43l-6.607-6.28c-.122-.12-.266-.22-.425-.28-.159-.07-.329-.1-.501-.1s-.342.03-.501.1c-.159.06-.303.16-.425.28l-4.792,5.05c-2.275-1.27-4.72-2.22-7.261-2.8v-7.26c0-.34-.138-.68-.383-.92-.245-.25-.578-.39-.924-.39h-9.585c-.347,0-.679.14-.924.39-.245.24-.383.58-.383.92v7.26c-2.884.75-5.621,1.98-8.096,3.63l-5.41-5.15c-.119-.13-.262-.23-.421-.3-.16-.07-.331-.1-.505-.1-.173,0-.345.03-.504.1s-.303.17-.422.3l-6.28,6.75c-.238.25-.37.58-.37.93c0,.34.132.67.37.92l5.409,5.19c-1.396,2.32-2.413,4.85-3.013,7.48h-7.261c-.35.01-.683.16-.927.41s-.381.59-.38.94v9.11c.009.35.155.68.406.93.25.24.587.38.937.38h7.261c.643,2.9,1.799,5.67,3.413,8.17l-4.793,5.08c-.121.12-.218.26-.284.42s-.1.33-.1.5c0,.18.034.35.1.51.066.15.163.3.284.42l6.608,6.28c.121.12.266.22.425.29.159.06.329.09.501.09s.342-.03.501-.09c.159-.07.303-.17.425-.29l4.647-4.86c2.323,1.44,4.859,2.5,7.515,3.15v6.58c0,.34.138.67.383.92.245.24.578.38.924.38h9.149c.347,0,.679-.14.924-.38.246-.25.383-.58.383-.92v-6.39c3.151-.66,6.154-1.89,8.859-3.63l4.465,4.28c.122.12.266.22.425.28.159.07.329.1.501.1s.343-.03.501-.1c.159-.06.304-.16.425-.28l6.281-6.86c.126-.12.227-.26.296-.42s.104-.33.104-.51c0-.17-.035-.34-.104-.5s-.17-.31-.296-.42l-4.466-4.29c1.531-2.59,2.611-5.43,3.195-8.38Zm-10.528,1.37c-1.592,3.73-4.482,6.75-8.133,8.5-.508.25-1.053.44-1.561.65-1.777.61-3.64.93-5.519.95-2.142,0-4.265-.42-6.244-1.24l-.617-.29c-3.679-1.68-6.612-4.65-8.242-8.35l-.363-.98c-1.472-3.77-1.472-7.95,0-11.72v-.37c1.604-3.7,4.492-6.71,8.133-8.46l.798-.32c1.98-.82,4.102-1.24,6.245-1.24c1.88,0,3.746.32,5.518.95h.327c3.785,1.44,6.911,4.21,8.786,7.8.191.34.361.69.509,1.05c1.694,3.67,1.991,7.83.835,11.7-.132.45-.289.9-.472,1.34v.03Z" fill="#fff"/></svg>